<svg xmlns="http://www.w3.org/2000/svg" viewBox="0 0 289 289"><defs><style>.cls-1{fill:#fff;}.cls-2{fill:#ba0909;}</style></defs><title>abc</title><g id="Layer_2" data-name="Layer 2"><circle class="cls-1" cx="144.5" cy="144.5" r="144.5"/></g><g id="Layer_6" data-name="Layer 6"><path class="cls-2" d="M174.29,155.23a54.94,54.94,0,0,1-7.81,5.81,42.26,42.26,0,0,1-7.47,3.61,35.54,35.54,0,0,1-7.28,1.81,54.69,54.69,0,0,1-7.32.49,27.74,27.74,0,0,1-9.28-1.51,22,22,0,0,1-7.42-4.3,20.05,20.05,0,0,1-4.93-6.74,20.77,20.77,0,0,1-1.81-8.74q0-13,11.08-20.21t33.25-7.23h9a66.65,66.65,0,0,0-.59-9.18,16.49,16.49,0,0,0-2.73-7.28,14.15,14.15,0,0,0-6.35-4.83q-4.2-1.76-11.43-1.76-10.65,0-16,3.32a13.49,13.49,0,0,0-6.3,10.06h-7.71q1.17-10.74,8.4-16t21.48-5.22a40.49,40.49,0,0,1,13.43,2,22.44,22.44,0,0,1,9,5.62,21.8,21.8,0,0,1,5,8.89,41.08,41.08,0,0,1,1.56,11.77V165h-7.81Zm0-29.2H162.48q-17,0-25.34,4.88t-8.35,14a12.16,12.16,0,0,0,5.27,10.5q5.27,3.76,14.45,3.76a25,25,0,0,0,7.76-1.22,35.58,35.58,0,0,0,7.08-3.17,42,42,0,0,0,6.1-4.35,55.62,55.62,0,0,0,4.83-4.64Z" transform="translate(-50.5 -53.5)"/><path class="cls-2" d="M231,179.42a36.63,36.63,0,0,1,6.35-6.79,34.73,34.73,0,0,1,6.64-4.3,29,29,0,0,1,6.45-2.29,28,28,0,0,1,6-.68,27.18,27.18,0,0,1,12.5,2.78,25.49,25.49,0,0,1,9.18,7.91,37.61,37.61,0,0,1,5.66,12.35,61.35,61.35,0,0,1,2,16,55.82,55.82,0,0,1-2.34,16.75,40.71,40.71,0,0,1-6.4,12.74,28.86,28.86,0,0,1-9.57,8.15A25.27,25.27,0,0,1,255.51,245a38.23,38.23,0,0,1-12.11-2.2,34.16,34.16,0,0,1-12.4-7.67V243h-7.81V136.06H231Zm0,45.51a49.52,49.52,0,0,0,11,8.89,24.71,24.71,0,0,0,12.65,3.32,20.21,20.21,0,0,0,16.89-8.3q6.35-8.3,6.35-24.41,0-15.43-6-23.34t-16.6-7.91a21.86,21.86,0,0,0-12.94,4.2A50.17,50.17,0,0,0,231,189.19Z" transform="translate(-50.5 -53.5)"/><path class="cls-2" d="M161.89,300a34.71,34.71,0,0,1-13.72-2.64,29.08,29.08,0,0,1-10.64-7.71,35.57,35.57,0,0,1-6.88-12.5,60.26,60.26,0,0,1,0-33.79,35,35,0,0,1,6.84-12.5A29.61,29.61,0,0,1,148.08,223a36.63,36.63,0,0,1,24-1.22,26.29,26.29,0,0,1,8.4,4.3,24.72,24.72,0,0,1,6.15,7,28.65,28.65,0,0,1,3.47,9.57H182.5a15.76,15.76,0,0,0-2.2-6.25,15.33,15.33,0,0,0-4.44-4.59,20.19,20.19,0,0,0-6.3-2.78,30.37,30.37,0,0,0-7.67-.93,27.07,27.07,0,0,0-10.55,2,21.63,21.63,0,0,0-8.2,6,27.84,27.84,0,0,0-5.27,10,53.48,53.48,0,0,0,0,27.93,27.83,27.83,0,0,0,5.27,10,21.61,21.61,0,0,0,8.2,6,27,27,0,0,0,10.55,2,28.56,28.56,0,0,0,7.32-.93,21.57,21.57,0,0,0,6.3-2.73,16.48,16.48,0,0,0,4.64-4.49,14.29,14.29,0,0,0,2.34-6.3h7.62a29.67,29.67,0,0,1-3.56,9.62,24.93,24.93,0,0,1-6.15,7,25.52,25.52,0,0,1-8.4,4.25A35.15,35.15,0,0,1,161.89,300Z" transform="translate(-50.5 -53.5)"/></g></svg>