<svg xmlns="http://www.w3.org/2000/svg" viewBox="0 0 289 289"><defs><style>.cls-1{fill:#fff;}.cls-2{fill:#ba0909;}</style></defs><title>alfabet</title><g id="Layer_2" data-name="Layer 2"><circle class="cls-1" cx="144.5" cy="144.5" r="144.5"/></g><g id="Layer_5" data-name="Layer 5"><path class="cls-2" d="M113.45,214.26,105,239.7H94.25l27.48-80.88h12.6l27.6,80.88H150.77l-8.64-25.44ZM140,206.1,132,182.82c-1.8-5.28-3-10.08-4.2-14.76h-.24c-1.2,4.8-2.52,9.72-4.08,14.64l-7.92,23.4Z" transform="translate(-50.5 -53.5)"/><path class="cls-2" d="M173.81,159.9a101.16,101.16,0,0,1,19.08-1.68c10.44,0,17.16,1.8,22.2,5.88,4.2,3.12,6.72,7.92,6.72,14.28,0,7.8-5.16,14.64-13.68,17.76v.24c7.68,1.92,16.68,8.28,16.68,20.28a21.8,21.8,0,0,1-6.84,16.2c-5.64,5.16-14.76,7.56-28,7.56a122,122,0,0,1-16.2-1ZM184.25,193h9.48c11,0,17.52-5.76,17.52-13.56,0-9.48-7.2-13.2-17.76-13.2a44.75,44.75,0,0,0-9.24.72Zm0,38.76a55.73,55.73,0,0,0,8.76.48c10.8,0,20.76-4,20.76-15.72,0-11-9.48-15.6-20.88-15.6h-8.64Z" transform="translate(-50.5 -53.5)"/><path class="cls-2" d="M295.37,237.06c-3.84,1.92-11.52,3.84-21.36,3.84-22.8,0-40-14.4-40-40.92,0-25.32,17.16-42.48,42.24-42.48,10.08,0,16.44,2.16,19.2,3.6L293,169.62a38,38,0,0,0-16.32-3.36c-19,0-31.56,12.12-31.56,33.36,0,19.8,11.4,32.52,31.08,32.52,6.36,0,12.84-1.32,17-3.36Z" transform="translate(-50.5 -53.5)"/></g></svg>