<svg xmlns="http://www.w3.org/2000/svg" viewBox="0 0 289 289"><defs><style>.cls-1{fill:#fff;}.cls-2{fill:#ba0909;}</style></defs><title>folketinget</title><g id="Layer_2" data-name="Layer 2"><circle class="cls-1" cx="144.5" cy="144.5" r="144.5"/></g><g id="Layer_4" data-name="Layer 4"><path class="cls-2" d="M130,271a115.36,115.36,0,0,1-34.71-33.75l-9.62,6.5c.88,1.47,13.74,22,38.17,37.53Z" transform="translate(-50.5 -53.5)"/><path class="cls-2" d="M-112,191" transform="translate(-50.5 -53.5)"/><path class="cls-2" d="M200,185.44v11.63a31.43,31.43,0,0,0,19.88-11.37A30.37,30.37,0,0,0,226,170.63l-10.94-1.81a18,18,0,0,1-3.81,10.13A18.22,18.22,0,0,1,200,185.44Z" transform="translate(-50.5 -53.5)"/><path class="cls-2" d="M212,132.33a100.47,100.47,0,0,1,3.17,20.17h11.67a91.72,91.72,0,0,0-3.5-24.17Z" transform="translate(-50.5 -53.5)"/><path class="cls-2" d="M246.13,112.13c1,4.38,2,9.14,2.75,14.25a168.07,168.07,0,0,1,1.75,19.75L261.88,145a152.73,152.73,0,0,0-5.12-36.87Z" transform="translate(-50.5 -53.5)"/><polygon class="cls-2" points="216.25 71.5 217.63 85.5 229.63 83.63 228.75 68.5 216.25 71.5"/><path class="cls-2" d="M228.5,118.83a129.22,129.22,0,0,1,5.33,41.58h10.83a171.26,171.26,0,0,0-5-46Z" transform="translate(-50.5 -53.5)"/><polygon class="cls-2" points="200.5 99.88 200.5 114 210.88 114 211.38 99.38 200.5 99.88"/><path class="cls-2" d="M100.58,189.17l11.17-2.58A137.43,137.43,0,0,1,107.42,145l-11.17-.83a163,163,0,0,0,4.33,45Z" transform="translate(-50.5 -53.5)"/><path class="cls-2" d="M114.67,132.33a153.69,153.69,0,0,0,2.92,53l10.75-2.58a119.66,119.66,0,0,1-1.75-48.25Z" transform="translate(-50.5 -53.5)"/><path class="cls-2" d="M135.67,119.92a125,125,0,0,0-1.17,61.42l11.17-2.83a118.51,118.51,0,0,1,.83-55.08Z" transform="translate(-50.5 -53.5)"/><path class="cls-2" d="M153.88,123.5a126.73,126.73,0,0,0-2.12,53.38l10.75-1.71a108.75,108.75,0,0,1,2.25-48Z" transform="translate(-50.5 -53.5)"/><path class="cls-2" d="M168.17,149.25a51.81,51.81,0,0,0,1.08,24l10.58-2.75a44.44,44.44,0,0,1,0-19.87Z" transform="translate(-50.5 -53.5)"/><path class="cls-2" d="M246.5,186.19c-9.14,19.57-26,33-44.32,35.14l.68,11.24c23.54-2.36,45.08-18.93,55-43.26Z" transform="translate(-50.5 -53.5)"/><path class="cls-2" d="M192.61,221.38a54.75,54.75,0,0,1-44.86-35.5l-11.25,3.88a63.82,63.82,0,0,0,9.38,17.13c1.24,1.6,18.57,23.37,46.25,25.77Z" transform="translate(-50.5 -53.5)"/><path class="cls-2" d="M190.52,275.46c-52.41-3-80-46.61-81.4-48.83l-9.62,6.5c1.38,2.3,32,51.28,90.5,54.67Z" transform="translate(-50.5 -53.5)"/><path class="cls-2" d="M284.13,225.5c-1.43,2.41-27.62,44.91-78.48,49.69l.74,12.35c57-5.16,86.12-53.11,87.61-55.67Z" transform="translate(-50.5 -53.5)"/><path class="cls-2" d="M191.12,256.2c-34.16-2.62-64.73-26-76.87-60l-10.69,3.38c12.93,39.22,47.9,66.32,87,69Z" transform="translate(-50.5 -53.5)"/><path class="cls-2" d="M284.38,183.13c-8,40.42-41.59,69.93-80.1,73l.74,12.29c43.6-3.74,81.14-37.76,89-83.58Z" transform="translate(-50.5 -53.5)"/><path class="cls-2" d="M191.85,239.17c-26.95-2.1-51.24-20.74-61.29-47.88l-10.73,3c11.48,31.85,39.94,53.75,71.53,56.08Z" transform="translate(-50.5 -53.5)"/><path class="cls-2" d="M267.06,177.94c-5.88,33.56-33,58.14-63.82,61.12l.67,11.24c35.9-3.3,67.4-31.79,74.21-70.67Z" transform="translate(-50.5 -53.5)"/><path class="cls-2" d="M230.13,180.56c-5.61,12.69-16.78,21.39-29,22.88l.71,11.84c16.18-1.76,31.33-13.53,39.09-30.86Z" transform="translate(-50.5 -53.5)"/><path class="cls-2" d="M193.38,203.41a37.83,37.83,0,0,1-20.2-9.85,35.91,35.91,0,0,1-8.55-13.19L153.88,184a45.22,45.22,0,0,0,2,4.88,53.06,53.06,0,0,0,9.46,12.94c4.52,4.41,14.77,11.82,27.5,13.38Z" transform="translate(-50.5 -53.5)"/><path class="cls-2" d="M194.14,185.42a17.15,17.15,0,0,1-6.73-2.76,17.38,17.38,0,0,1-6.08-7.5l-10.42,3.33a31,31,0,0,0,22.75,18Z" transform="translate(-50.5 -53.5)"/></g></svg>