<svg xmlns="http://www.w3.org/2000/svg" viewBox="0 0 289 289"><defs><style>.cls-1{fill:#fff;}.cls-2{fill:#ba0909;}</style></defs><title>history2</title><g id="Layer_2" data-name="Layer 2"><circle class="cls-1" cx="144.5" cy="144.5" r="144.5"/></g><g id="Layer_1" data-name="Layer 1"><path class="cls-2" d="M193.77,221.46a5.19,5.19,0,0,0-4.89,0l12.21,70.23a8.66,8.66,0,0,0,3.05-2.44,8.79,8.79,0,0,0,1.83-4.89,128.25,128.25,0,0,0-12.21-62.9Z" transform="translate(-50.5 -53.5)"/><path class="cls-2" d="M207.81,230.62c-2.59-4.37-5.26-8.44-7.94-12.21a2.41,2.41,0,0,0-2.44-1.22c-.88.33-1.5,2-.61,3.66,6,17.54,11.38,31,14.66,38.48A97.3,97.3,0,0,0,220,275.2c1.26,1.87,2.36,3.36,3.05,4.28.2.28,1,1.31,1.83,1.22,1-.11,2-1.8,1.83-4.28A176.34,176.34,0,0,0,207.81,230.62Z" transform="translate(-50.5 -53.5)"/><path class="cls-2" d="M237.74,250.77c-5.45-7.23-4.6-7.27-13.44-19.54-5.4-7.51-4.71-6.09-6.72-9.16a41.7,41.7,0,0,0-5.5-7.33,32.46,32.46,0,0,0-4.28-3.66,1.71,1.71,0,0,0-1.22-.61c-.86,0-1.42,1.06-1.83,1.83a11.31,11.31,0,0,0-1.22,5.5,268,268,0,0,0,14.66,23.82c3.47,5,6.95,9.71,10.38,14,5.26,7.2,11.28,11.27,15.27,9.77a5,5,0,0,0,1.83-1.22,62.62,62.62,0,0,0-3.05-6.11A64.47,64.47,0,0,0,237.74,250.77Z" transform="translate(-50.5 -53.5)"/><path class="cls-2" d="M216.36,206.8a8.31,8.31,0,0,0-3.66-2.44c-.68-.21-1.78-.55-2.44,0a2.12,2.12,0,0,0,0,3.05,59.12,59.12,0,0,0,4.28,6.72c2.07,2.82,4.41,5.47,12.21,12.83,4.15,3.91,6.23,5.87,7.94,7.33a116.74,116.74,0,0,0,19.54,13.44c3.85,1.2,6.8.68,7.33-.61.46-1.14-1.09-2.87-1.83-3.66C246.81,229.6,219.85,210.89,216.36,206.8Z" transform="translate(-50.5 -53.5)"/><path class="cls-2" d="M259.73,218.4l-14-9.77q-14.44-10.08-28.7-20.15a4,4,0,0,0-1.83.61c-1.88,1.21-2.59,4.13-1.83,7.33a27.5,27.5,0,0,0,2.44,4.28c2.29,3.29,4.61,5.05,10.38,9.16,7.09,5,10.63,7.56,13.44,9.16a100,100,0,0,0,9.77,4.89c3.79,1.69,12.26,4.77,21.38,1.83A25.17,25.17,0,0,0,275,223.9a40.24,40.24,0,0,1-15.27-5.5Z" transform="translate(-50.5 -53.5)"/><path class="cls-2" d="M202.93,203.75a22.81,22.81,0,0,0,5.5-14.66c.47-2.71-.27-4.67-1.22-4.89s-2.36,1.71-2.44,1.83A53,53,0,0,1,184.61,205c-.22.15-4.26,3-3.66,4.89.5,1.56,4.18,2.32,9.16,1.22A22.73,22.73,0,0,0,202.93,203.75Z" transform="translate(-50.5 -53.5)"/><path class="cls-2" d="M287.21,173.82c-3.81-.71-5.13-1-6.72-1.83a15.43,15.43,0,0,1-6.11-6.11c-1.84-3.66-4.73-9.61-7.94-17.1-7.7-18-7.82-22.82-14-31.76a52.81,52.81,0,0,0-17.1-16.49,49.93,49.93,0,0,0-17.1-6.11c-2.1-.34-3.58-.56-4.28-.61a34.89,34.89,0,0,0-9.77.61A31.34,31.34,0,0,0,195,98.7c-5,3.45-7.7,7.54-10.38,11.6a35.13,35.13,0,0,0-4.28,7.94,30.93,30.93,0,0,0-1.83,11,43.48,43.48,0,0,1,.61,6.72c0,3.44.07,5.16-.61,5.5-1,.51-3.83-1.76-11-12.21l-1.22-12.83c-.17-.67-2.64-9.79-11.6-12.83a18.34,18.34,0,0,0-14,1.22H116.82A16,16,0,0,0,104,122.52c.14.49,1.46,5,3.05,4.89.21,0,.59-.1,2.44-2.44.78-1,1.4-1.84,1.83-2.44a6.05,6.05,0,0,1,3.05-1.22,6.22,6.22,0,0,1,4.28,1.22q7.27,9.57,14.66,20.15,7.16,10.28,13.44,20.15a25.14,25.14,0,0,1-6.72.61,42.44,42.44,0,0,1-7.94-1.22,18.18,18.18,0,0,0-3.05-.61,17.25,17.25,0,0,0-3.66,0,28,28,0,0,0-3.66,1.83,31.5,31.5,0,0,0-12.21,14,53.95,53.95,0,0,0-6.72,42.75,57.76,57.76,0,0,0,7.33,15.88c4.67,7,9,9.95,20.76,21.38,4.78,4.62,8.57,8.49,11,11l9.77,17.1,1.22,17.71a39.21,39.21,0,0,0,4.28-12.83,33.57,33.57,0,0,0,0-7.94,36,36,0,0,0-8.55-18.93L127.2,239.78a70.34,70.34,0,0,1-17.1-27.48,55.88,55.88,0,0,1,0-16.49c.73-4.38,3.16-15,12.21-21.38a25.76,25.76,0,0,1,4.28-2.44h5.5c5.87,0,6-.06,7.33,0,3.68.18,4.32.64,9.16,1.22,1.51.18,1.48.17,7.94.61,9.35.64,12.13,1,15.27-.61a18.79,18.79,0,0,0,1.87-1.14,26,26,0,0,0,5.46-5.58,25.59,25.59,0,0,0,4.28-9.16c.47-2.45.9-5.11,1.22-7.94s.51-5.46.61-7.94c-.17-4.17-.27-18.94,10.38-30.54A38.07,38.07,0,0,1,206,103a22.38,22.38,0,0,1,12.83.61c2.29.85,4,2,7.33,4.28a71.27,71.27,0,0,1,8.55,6.72,65.25,65.25,0,0,1,10.38,12.21c3.7,5.64,5,9.57,8.55,17.1,2.13,4.51,5.32,10.85,9.77,18.32a33.48,33.48,0,0,0,14,17.1,44,44,0,0,0,14.66,0,5,5,0,0,0,4.89-1.83,3.9,3.9,0,0,0,.61-1.83C293.51,175,290,174.34,287.21,173.82ZM148,150a3.88,3.88,0,0,1-1.83-.61L127.2,123.74l14.66,8.55a7.58,7.58,0,0,0,5.5-1.22c2.57-1.89,3.61-5.59,2.44-9.16a6.5,6.5,0,0,0-1.83-3.66,6.68,6.68,0,0,0-4.89-1.83,42,42,0,0,1-10.38,5.5,68.73,68.73,0,0,1-11.6-4.28c-3.32-1.58-5.63-3-8.55-2.44a9,9,0,0,0-4.89,3.05,18.42,18.42,0,0,1,5.5-6.11c10.08-7,23.57-.44,24.43,0l6.72-4.28a10.39,10.39,0,0,1,4.89-.61,10.1,10.1,0,0,1,2.44.61,16.07,16.07,0,0,1,6.72,4.28,17.06,17.06,0,0,1,4.28,12.21,6.62,6.62,0,0,0-3.05,3.05,6.47,6.47,0,0,0-.61,3.05c.13.42.34,1.06.61,1.83.93,2.67,1.32,3.28,1.22,4.28a4.16,4.16,0,0,1-1.22,2.44c-.43.6-1.05,1.45-1.83,2.44a55.41,55.41,0,0,1-4.28,4.89C149.9,149.9,148.64,150,148,150Zm29.93,2.44a38.56,38.56,0,0,1-12.21,14.66q-9.29.15-9.77-1.83-.28-1.16,2.44-3.05l15.27-13.44a3,3,0,0,1,4.28,0A2.94,2.94,0,0,1,177.89,152.44Z" transform="translate(-50.5 -53.5)"/><path class="cls-2" d="M276.83,185.42a76.33,76.33,0,0,1-23.21-25c-4.06-9.46-7.75-16.61-10.38-21.38a68.86,68.86,0,0,0-6.72-10.38,82.08,82.08,0,0,0-6.72-7.33,44.72,44.72,0,0,0-6.11-5.5c-1.76-1.2-6-4.1-11-4.28-8.55-.3-14.5,7.51-15.27,8.55a33.63,33.63,0,0,0-6.72,11.6c-1.27,3.84-1.51,7-1.83,11.6a92.35,92.35,0,0,0,0,12.83,42.47,42.47,0,0,1-5.5,14.66,21.55,21.55,0,0,1-8.55,8.55c-6.87,3.58-14.72,2.15-23.21.61-8.65-1.57-9.9-3.22-14.66-2.44-7.06,1.16-11.59,6-12.83,7.33-6.43,6.94-6.62,15.54-6.72,20.15a39.07,39.07,0,0,0,4.89,19.54c1.24,1.63,2.88,3.73,4.89,6.11.51.6,2.44,2.88,4.89,5.5,6.09,6.52,10.22,9.64,16.49,15.88,2,2,5,5.12,8.55,9.16,1.64,2.48,3.28,5.12,4.89,7.94a142.59,142.59,0,0,1,8.55,17.71A48.6,48.6,0,0,0,163.84,255q-2.66-2.73-5.5-5.5c-4.53-4.4-9-8.47-13.44-12.21a61,61,0,0,1-11.6-11.6c-3.15-4.15-6.45-8.59-7.94-15.27a21.86,21.86,0,0,1,0-11.6,20.07,20.07,0,0,1,3.05-6.11,22.25,22.25,0,0,1,6.72-4.28c1-.41,8.36-3.32,15.88-.61a24.48,24.48,0,0,1,2.77,1.29,13.36,13.36,0,0,0,1.5.55,34.55,34.55,0,0,0,9.77,1.22c4.61-.16,9.85-.34,15.27-3.66a25.5,25.5,0,0,0,6.72-6.11,35.76,35.76,0,0,0,5.5-10.38,31.59,31.59,0,0,0,1.83-6.11c.41-2.24.2-2.64.61-6.72s.59-3.75.87-6.93a74.37,74.37,0,0,1,1-9.56c1.62-8.59,3.58-11.71,4.89-13.44,1.44-1.9,3.64-4.72,7.33-5.5a13.26,13.26,0,0,1,6.72.61,15.49,15.49,0,0,1,3.66,1.83,34.56,34.56,0,0,1,7.94,7.33,121.43,121.43,0,0,1,9.77,14,91.07,91.07,0,0,1,6.72,13.44c5,12.13,13.64,25.89,28.09,31.15q.9.33,1.83.61c1.72.72,8.71,3.4,14.66,0a12.42,12.42,0,0,0,2.44-1.83,70.86,70.86,0,0,1-14-4.28Z" transform="translate(-50.5 -53.5)"/><path class="cls-2" d="M146.74,193.36A13.91,13.91,0,0,0,140,194a13.77,13.77,0,0,0-4.28,2.44,8,8,0,0,0-.61.61c-4.79,5.34-1.12,15.86.61,20.15a58,58,0,0,0,9.77,13.44c3,3,5.15,4.54,9.77,9.16,3.24,3.24,5.72,6.05,7.33,7.94.17.21,3.1,3.67,4.28,3.05.89-.46.66-3.2-.61-6.72a84.29,84.29,0,0,0-5.5-9.16c-4-5.76-6.86-8.37-12.83-16.49-1.32-1.8-2.37-3.29-3.05-4.28a16.06,16.06,0,0,1-3.05-9.77A16.3,16.3,0,0,1,146.74,193.36Z" transform="translate(-50.5 -53.5)"/><path class="cls-2" d="M164.45,234.89A21.81,21.81,0,0,0,166.28,219a65.38,65.38,0,0,1-8.55-20.15,6.19,6.19,0,0,0-.61-2.44c-.59-1.21-2-3.1-3.66-3.05s-3.66,2.29-3.66,5.5a24.93,24.93,0,0,0,1.22,11.6c1.48,4,3.51,6,6.11,9.77A60.75,60.75,0,0,1,164.45,234.89Z" transform="translate(-50.5 -53.5)"/><path class="cls-2" d="M188.88,187.26a35.66,35.66,0,0,1-20.76,8.55,12.54,12.54,0,0,0,7.33,5.5c4.2.95,7.88-1.17,12.21-3.66a37.82,37.82,0,0,0,7.33-5.5c5.84-6.33,8.5-13.46,6.11-18.32a8.47,8.47,0,0,0-1.83-2.44A35.34,35.34,0,0,1,188.88,187.26Z" transform="translate(-50.5 -53.5)"/><path class="cls-2" d="M198.63,159.77h0a2.19,2.19,0,0,0,.61,1.22c.87.82,2.16.34,4.28.61a10.89,10.89,0,0,1,2.44.61c2.18,1.56,4,3,5.5,4.28,9.26,7.83,12.18,13.71,18.93,14.66a13.36,13.36,0,0,0,3.66,0c-8.67-11-12.65-17.14-14.66-20.76a39.64,39.64,0,0,0-4.89-6.72c-1.77-2.13-3.46-3.9-6.11-4.89a11.42,11.42,0,0,0-2.44-.61c-3.6,1.19-3.66,1.22-3.66,1.22C198.39,151.45,197.91,159.5,198.63,159.77Z" transform="translate(-50.5 -53.5)"/><path class="cls-2" d="M209.65,141.45c1.76-.32,5.63.21,14.66,14,6.71,10.28,8.41,15.32,14.66,22.6a24.91,24.91,0,0,0,9.16,6.72,24.59,24.59,0,0,0,7.33,1.83c-12.14-16.08-17.23-25.75-19.54-31.76A46.26,46.26,0,0,0,228,141.45a41.11,41.11,0,0,0-6.72-6.11c-3.4-2.65-5.07-3.35-6.72-3.66a11.7,11.7,0,0,0-4.28,0,19.52,19.52,0,0,0-5.5,4.28,20.25,20.25,0,0,0-4.89,11,28.3,28.3,0,0,1,4.28-3.05A22.81,22.81,0,0,1,209.65,141.45Z" transform="translate(-50.5 -53.5)"/><path class="cls-2" d="M182.77,216.57a20.61,20.61,0,0,0-4.28,3.05A21.73,21.73,0,0,0,172.39,230c-.17,3,1,5.59,3.05,6.72a5.19,5.19,0,0,0,2.44.61q-.32-1.8-.61-3.66-.34-2.18-.61-4.28a52.17,52.17,0,0,1,3.05,4.28c1.62,2.53,2.43,4.3,3.66,4.28a1.85,1.85,0,0,0,1.22-.61c-.48-2.66-.91-5.52-1.22-8.55A113.59,113.59,0,0,1,182.77,216.57Z" transform="translate(-50.5 -53.5)"/></g></svg>