<svg id="Layer_2" data-name="Layer 2" xmlns="http://www.w3.org/2000/svg" viewBox="0 0 289 289"><defs><style>.cls-1{fill:#fff;}.cls-2{fill:#ba0909;}</style></defs><title>kultur</title><circle class="cls-1" cx="144.5" cy="144.5" r="144.5"/><path class="cls-2" d="M237.31,167.11c-17.67-19.64-42.9-19.12-49.13-19-23.79.35-45.93,12.84-58.36,31.38-1.5,2.24-16.91,25.9-9.23,48.14,1.21,3.52,3.61,9.67,9.09,11.93,7.53,3.1,18.31-1.34,23.29-11.93a10,10,0,0,1,4.33-3.57,11.56,11.56,0,0,1,6.38-.33c8.32,1.87,17.05,20.66,30.47,27.76,14.62,7.73,31.78,0,33.51-.85,14.4-6.77,20-19.77,21.3-23C249.53,225.8,259.63,191.92,237.31,167.11Zm-78.67,12.07a7.24,7.24,0,1,1,7.24-7.24A7.24,7.24,0,0,1,158.64,179.18Zm29.7-7.3a8.74,8.74,0,1,1,8.74-8.74A8.74,8.74,0,0,1,188.34,171.87ZM215,240a16,16,0,1,1,16-16A16,16,0,0,1,215,240Zm5.68-48.2a11,11,0,1,1,11-11A11,11,0,0,1,220.72,191.75Z" transform="translate(-50.5 -53.5)"/><path class="cls-2" d="M166.84,229.59l-5.18-4.64-30.94,34.54a3.49,3.49,0,0,0,5.18,4.64Z" transform="translate(-50.5 -53.5)"/><path class="cls-2" d="M226.07,153.73l5.18,4.64,2.59-2.89a52.64,52.64,0,0,0-5.18-4.64Z" transform="translate(-50.5 -53.5)"/><path class="cls-2" d="M229.95,149.56l5.18,4.64,11.13-8.33a36.84,36.84,0,0,0-9.42-8.15Z" transform="translate(-50.5 -53.5)"/><polyline class="cls-2" points="187.6 82.37 197.23 91.17 212.75 81.33 193.82 68.17"/></svg>