<svg id="Layer_2" data-name="Layer 2" xmlns="http://www.w3.org/2000/svg" viewBox="0 0 289 289"><defs><style>.cls-1{fill:#fff;}.cls-2{fill:none;stroke:#ba0909;stroke-miterlimit:10;stroke-width:4px;}.cls-3{fill:#ba0909;}</style></defs><title>kultur2</title><circle class="cls-1" cx="144.5" cy="144.5" r="144.5"/><path class="cls-2" d="M242.52,163.7c-19.76-22-48-21.38-55-21.28-26.6.39-51.36,14.36-65.28,35.1-1.68,2.5-18.91,29-10.32,53.84,1.36,3.93,4,10.82,10.16,13.34,8.42,3.47,20.48-1.5,26-13.34a11.19,11.19,0,0,1,4.84-4,12.93,12.93,0,0,1,7.14-.36c9.3,2.09,19.07,23.11,34.08,31,16.35,8.64,35.54,0,37.48-1,16.11-7.57,22.38-22.11,23.82-25.73C256.18,229.35,267.48,191.45,242.52,163.7Zm-88,13.5a8.1,8.1,0,1,1,8.1-8.1A8.1,8.1,0,0,1,154.53,177.2ZM187.75,169a9.78,9.78,0,1,1,9.78-9.78A9.78,9.78,0,0,1,187.75,169Zm29.86,76.15a17.95,17.95,0,1,1,17.95-17.95A17.95,17.95,0,0,1,217.6,245.18ZM224,191.27A12.32,12.32,0,1,1,236.27,179,12.32,12.32,0,0,1,224,191.27Z" transform="translate(-50.5 -53.5)"/><path class="cls-3" d="M165.94,238.06l-5.79-5.19-34.6,38.63a3.9,3.9,0,0,0,5.79,5.19Z" transform="translate(-50.5 -53.5)"/><path class="cls-3" d="M235.53,149.86l5.79,5.19,2.89-3.23a58.87,58.87,0,0,0-5.79-5.19Z" transform="translate(-50.5 -53.5)"/><path class="cls-3" d="M239.87,145.2l5.79,5.19,12.45-9.32A41.2,41.2,0,0,0,247.58,132Z" transform="translate(-50.5 -53.5)"/><polyline class="cls-3" points="198.49 76.38 209.26 86.23 226.62 75.22 205.45 60.5"/></svg>