<svg xmlns="http://www.w3.org/2000/svg" viewBox="0 0 289 289"><defs><style>.cls-1{fill:#fff;}.cls-2{fill:#ba0909;}</style></defs><title>sprog</title><g id="Layer_2" data-name="Layer 2"><circle class="cls-1" cx="144.5" cy="144.5" r="144.5"/></g><g id="Layer_5" data-name="Layer 5"><path class="cls-2" d="M234.21,258.43q-14.65,0-25.93-6.08a46.64,46.64,0,0,1-18.16-17.65,151,151,0,0,1-11.94,10.84,59,59,0,0,1-11.65,7.4,52.94,52.94,0,0,1-13,4.17,87.19,87.19,0,0,1-16,1.32,41.62,41.62,0,0,1-13.92-2.27,33,33,0,0,1-11.13-6.45,30.07,30.07,0,0,1-7.4-10.11,31.16,31.16,0,0,1-2.71-13.11q0-19.48,16.63-30.32t49.88-10.84h13.48a100,100,0,0,0-.88-13.77,24.74,24.74,0,0,0-4.1-10.91,21.23,21.23,0,0,0-9.52-7.25q-6.3-2.64-17.14-2.64-16,0-24,5t-9.45,15.09H105.74q1.76-16.11,12.6-24T150.56,139q16.84,0,26.51,5.86a32.44,32.44,0,0,1,13.77,16.41A45.82,45.82,0,0,1,208,144.83,49.13,49.13,0,0,1,232,139a51.76,51.76,0,0,1,20.95,4.1,44,44,0,0,1,16,11.79A53.16,53.16,0,0,1,279,173.69a82.31,82.31,0,0,1,3.52,25v2.64H194.07v1.61a49.53,49.53,0,0,0,3.22,18.38A41.19,41.19,0,0,0,206,235.06a37.77,37.77,0,0,0,12.74,8.64,40,40,0,0,0,15.45,3,50.47,50.47,0,0,0,11.72-1.39,38.53,38.53,0,0,0,10.62-4.17,28,28,0,0,0,8-6.88,18.13,18.13,0,0,0,3.81-9.37h11.57a39.33,39.33,0,0,1-15.82,24.83,44,44,0,0,1-13.62,6.52A58.42,58.42,0,0,1,234.21,258.43ZM114.09,225.32q0,10.11,7.91,15.75t21.68,5.64A36.75,36.75,0,0,0,155,244.88,59,59,0,0,0,166.09,240a73.2,73.2,0,0,0,10.4-7.18,82.75,82.75,0,0,0,8.94-8.5,76.89,76.89,0,0,1-4-25.78V197H164.63q-25.49,0-38,7.32T114.09,225.32Zm156.59-35.74q-2.93-19.48-13.26-29.15T232,150.76a38.65,38.65,0,0,0-14,2.56,35.34,35.34,0,0,0-11.87,7.54A38.35,38.35,0,0,0,197.73,173a45.32,45.32,0,0,0-3.66,16.55Z" transform="translate(-50.5 -53.5)"/></g></svg>