<svg xmlns="http://www.w3.org/2000/svg" viewBox="0 0 289 289"><defs><style>.cls-1{fill:#fff;}.cls-2{fill:#ba0909;}</style></defs><title>talord</title><g id="Layer_2" data-name="Layer 2"><circle class="cls-1" cx="144.5" cy="144.5" r="144.5"/></g><g id="Layer_5" data-name="Layer 5"><path class="cls-2" d="M119.57,171.54h-.24l-13.56,7.32-2-8,17-9.12h9v78h-10.2Z" transform="translate(-50.5 -53.5)"/><path class="cls-2" d="M158.21,239.7v-6.48l8.28-8c19.92-19,28.92-29,29-40.8,0-7.92-3.84-15.24-15.48-15.24-7.08,0-13,3.6-16.56,6.6l-3.36-7.44a34.22,34.22,0,0,1,22.08-7.92c16.8,0,23.88,11.52,23.88,22.68,0,14.4-10.44,26-26.88,41.88L173,230.7v.24h35v8.76Z" transform="translate(-50.5 -53.5)"/><path class="cls-2" d="M222.29,227.58a35.29,35.29,0,0,0,17.28,4.92c13.56,0,17.76-8.64,17.64-15.12-.12-10.92-10-15.6-20.16-15.6h-5.88v-7.92H237c7.68,0,17.4-4,17.4-13.2,0-6.24-4-11.76-13.68-11.76a28.65,28.65,0,0,0-15.6,5.16l-2.76-7.68c4.08-3,12-6,20.4-6,15.36,0,22.32,9.12,22.32,18.6,0,8-4.8,14.88-14.4,18.36v.24c9.6,1.92,17.4,9.12,17.4,20,0,12.48-9.72,23.4-28.44,23.4-8.76,0-16.44-2.76-20.28-5.28Z" transform="translate(-50.5 -53.5)"/></g></svg>